# xmcd
#
# Track frame offsets: 
#        150
#        11990
#        20690
#        32735
#        43162
#        54152
#        60937
#        69462
#        78022
#        89637
#        100057
#        110312
#        119890
#        130737
#        141320
#
# Disc length: 2025 seconds
#
# Revision: 0
# Processed by: cddbd v1.5.1PL0 Copyright (c) Steve Scherf et al.
# Submitted via: ExactAudioCopy v0.95a5
#
DISCID=cb07e70f
DTITLE=Waylon Jennings - Renegade Outlaw Legend
DYEAR=1997
DGENRE=Country
TTITLE0=Crying
TTITLE1=Love's Gonna Live Here
TTITLE2=Don't Think Twice
TTITLE3=Money
TTITLE4=Big Mamou
TTITLE5=It's So Easy
TTITLE6=Abilene
TTITLE7=Jolie Blon
TTITLE8=Sally Was A Good Old Girl
TTITLE9=Lorena
TTITLE10=White Lightnin'
TTITLE11=When Sin Stops
TTITLE12=Dream Baby
TTITLE13=Burning Memories
TTITLE14=Sweet Mental Revenge
EXTD=
EXTT0=
EXTT1=
EXTT2=
EXTT3=
EXTT4=
EXTT5=
EXTT6=
EXTT7=
EXTT8=
EXTT9=
EXTT10=
EXTT11=
EXTT12=
EXTT13=
EXTT14=
PLAYORDER=
